<svg xmlns="http://www.w3.org/2000/svg" width="650.202" height="650.056" viewBox="0 0 650.202 650.056">
  <path id="Icon_awesome-instagram" data-name="Icon awesome-instagram" d="M325.168,160.6A166.666,166.666,0,1,0,491.834,327.266,166.4,166.4,0,0,0,325.168,160.6Zm0,275.021c-59.617,0-108.355-48.593-108.355-108.355a108.355,108.355,0,0,1,216.71,0c0,59.762-48.738,108.355-108.355,108.355ZM537.526,153.782a38.874,38.874,0,1,1-38.874-38.874A38.784,38.784,0,0,1,537.526,153.782Zm110.386,39.454c-2.466-52.074-14.36-98.2-52.509-136.205-38-38-84.131-49.9-136.205-52.509-53.67-3.046-214.534-3.046-268.2,0C139.065,6.988,92.938,18.883,54.789,56.887S4.89,141.017,2.279,193.092c-3.046,53.67-3.046,214.534,0,268.2C4.745,513.369,16.64,559.5,54.789,597.5s84.131,49.9,136.205,52.509c53.67,3.046,214.534,3.046,268.2,0,52.074-2.466,98.2-14.36,136.205-52.509,38-38,49.9-84.131,52.509-136.2,3.046-53.67,3.046-214.389,0-268.058ZM578.576,518.881a109.7,109.7,0,0,1-61.793,61.793c-42.791,16.971-144.328,13.055-191.615,13.055S176.2,597.5,133.553,580.674A109.7,109.7,0,0,1,71.76,518.881C54.789,476.091,58.705,374.553,58.705,327.266S54.934,178.3,71.76,135.65a109.7,109.7,0,0,1,61.793-61.793C176.343,56.887,277.881,60.8,325.168,60.8s148.97-3.771,191.615,13.055a109.7,109.7,0,0,1,61.793,61.793c16.971,42.791,13.055,144.328,13.055,191.615S595.547,476.236,578.576,518.881Z" transform="translate(0.005 -2.238)"/>
</svg>
