<svg xmlns="http://www.w3.org/2000/svg" width="1406.705" height="349.47" viewBox="0 0 1406.705 349.47">
  <path id="Path_1" data-name="Path 1" d="M83.661-216.389c-6.707,29.652-8.119,109.783-8.119,114.372C75.542-82.6,76.6-56.833,76.6-31.77c0,8.472,0,16.591-.353,24.357L41.654,9.884C24.71,18.356-10.237,36.006-10.237,58.245c0,21.886,32.123,26.122,47.655,26.122,20.474,0,50.126-7.766,62.834-27.181,10.237-16.238,15.532-36.359,18-56.48,12.355-6.354,22.945-12.355,28.24-17.3,5.648-4.942,9.178-10.59,9.178-18,0-6.707-3.883-12.355-9.531-15.885-3.177,4.236-13.061,10.943-25.769,18.356v-84.014c0-21.886,0-46.243,1.765-68.129,2.118-27.887,6.354-52.244,14.826-63.187a7.334,7.334,0,0,0,1.765-4.236c0-5.648-10.237-10.59-26.828-10.59-9.884,0-20.121,1.765-27.181,6.354C63.187-242.158,10.59-196.621-6-154.261a65.093,65.093,0,0,0-4.236,24c0,35.653,26.828,68.835,42.36,78.013,10.59-6.354,24-15.885,24-29.3a22.992,22.992,0,0,0-2.118-9.178c-5.648-13.414-24.71-36.006-24.71-58.6a35.051,35.051,0,0,1,4.942-18.356C46.243-188.855,78.719-212.153,83.661-216.389ZM67.776,38.83C64.6,45.537,58.6,50.479,51.891,53.656a42.558,42.558,0,0,1-18.356,4.589c-5.3,0-9.178-1.412-9.531-4.589,0-3.53,7.413-8.119,19.415-15.179,8.119-4.589,18.356-9.531,28.946-14.826A77.273,77.273,0,0,1,67.776,38.83ZM187.443-135.2c-3.177-16.591-21.886-24.71-35.3-24.71a21.708,21.708,0,0,0-4.942.353,49.841,49.841,0,0,1,.353,7.766c0,14.473-2.471,37.065-3.53,59.657-.353,8.119-.706,16.238-.706,24,0,10.59.353,20.121,2.118,28.946,3.177,17.65,12,31.064,22.592,39.183,8.119,6.707,17.3,9.884,25.063,9.884,3.883,0,7.766-.706,10.59-2.471,8.472-4.589,15.532-16.944,21.18-31.064,8.472-21.533,14.12-48.008,16.591-60.363,0-.706.353-1.059.353-1.412-1.412,8.825-3.883,24-3.883,39.889,0,10.943,1.412,22.592,4.589,31.77C249.218,6,265.1,14.12,280.635,14.12a47.28,47.28,0,0,0,17.3-3.53c15.532-6.707,29.652-31.064,29.652-42.713,0-12.355-8.119-16.591-13.061-16.591h-1.412c-2.824,13.767-17.65,35.653-27.534,35.653-8.119,0-8.825-19.415-8.825-24.357,0-27.887,4.589-53.656,4.589-79.425,0-13.061-7.413-23.651-16.238-31.064-7.413-6.354-16.238-9.884-21.886-9.884-3.53,0-5.648,1.059-6,3.883-1.412,11.649-9.531,47.3-18.709,77.66-6.707,22.592-14.12,42.007-20.121,46.6A5.309,5.309,0,0,1,194.5-28.24c-3.883,0-7.766-3.883-7.766-12,0-15.885,2.118-47.655,2.118-71.306C188.855-121.432,188.5-129.9,187.443-135.2Zm184.972-25.769c-7.413,5.648-13.061,18.356-13.061,34.241a93.024,93.024,0,0,0,.706,9.884,101.743,101.743,0,0,0-6,10.943c-.353-12-1.059-22.239-2.824-28.24-3.53-12.708-10.59-19.768-18-23.651a32.066,32.066,0,0,0-13.061-3.177c-4.236,0-7.766,1.059-9.531,2.824,1.059,1.059,1.412,7.413,1.412,17.3,0,13.767-1.059,34.241-1.059,70.953,0,26.475,1.059,51.538,5.648,62.834,4.942,12,16.591,19.768,27.534,19.768a21,21,0,0,0,11.3-3.177C353-5.648,352.647-20.121,352.647-34.594a49.964,49.964,0,0,1,.706-10.237c3.53-21.18,12-35.3,19.768-39.183a55.5,55.5,0,0,0,42.007,19.062c19.415,0,38.83-10.943,38.83-30.358,0-10.59-6.354-17.65-13.767-17.65-1.765,10.237-11.649,20.474-22.239,20.474a7.773,7.773,0,0,1-2.824-.353c-14.473-2.824-19.415-17.3-19.415-17.3s13.061-15.179,13.061-26.122c0-14.826-15.885-27.534-27.887-27.534A14.363,14.363,0,0,0,372.415-160.968Zm116.843,0c-7.413,5.648-13.061,18.356-13.061,34.241a93.024,93.024,0,0,0,.706,9.884,101.743,101.743,0,0,0-6,10.943c-.353-12-1.059-22.239-2.824-28.24-3.53-12.708-10.59-19.768-18-23.651a32.066,32.066,0,0,0-13.061-3.177c-4.236,0-7.766,1.059-9.531,2.824,1.059,1.059,1.412,7.413,1.412,17.3,0,13.767-1.059,34.241-1.059,70.953,0,26.475,1.059,51.538,5.648,62.834,4.942,12,16.591,19.768,27.534,19.768a21,21,0,0,0,11.3-3.177c-2.471-15.179-2.824-29.652-2.824-44.125a49.964,49.964,0,0,1,.706-10.237c3.53-21.18,12-35.3,19.768-39.183a55.5,55.5,0,0,0,42.007,19.062c19.415,0,38.83-10.943,38.83-30.358,0-10.59-6.354-17.65-13.767-17.65-1.765,10.237-11.649,20.474-22.239,20.474a7.772,7.772,0,0,1-2.824-.353c-14.473-2.824-19.415-17.3-19.415-17.3s13.061-15.179,13.061-26.122c0-14.826-15.885-27.534-27.887-27.534A14.363,14.363,0,0,0,489.258-160.968ZM638.224-91.427c8.472-6.707,19.415-19.062,19.415-35.3a44.207,44.207,0,0,0-4.236-17.65c-6.707-14.473-26.828-25.416-48.008-25.416-17.65,0-36.006,7.413-49.067,26.475-12.355,18-18.356,43.066-18.356,67.423,0,24,6,47.655,18.356,63.187,15.885,20.121,38.83,27.181,58.951,27.181a80.333,80.333,0,0,0,25.769-4.236c24.71-8.825,49.067-33.535,49.067-57.892,0-10.237-6-18.356-13.414-18.356-.706,0-1.412.353-2.118.353A65.082,65.082,0,0,1,652.7-25.416C644.225-18,634.341-13.767,624.81-13.767c-8.472,0-16.944-3.53-24-11.3-9.884-10.943-14.473-29.652-14.826-49.067C603.983-74.836,623.4-79.425,638.224-91.427Zm-26.475-55.068c5.648,0,9.884,6,9.884,13.767a32.132,32.132,0,0,1-14.12,26.828,68.13,68.13,0,0,1-20.474,9.178,133.933,133.933,0,0,1,7.06-30.005C598.335-137.67,604.336-145.436,611.749-146.495ZM768.834-14.473c0,5.648-.353,13.767-.706,21.886-10.59,6-20.121,10.59-26.475,13.767-21.533,9.884-44.831,20.827-44.831,39.889a18.513,18.513,0,0,0,.706,6c6.707,19.768,33.182,20.121,47.655,20.121,16.944-1.059,33.888-7.413,44.125-19.415,11.3-13.414,16.591-32.829,19.415-51.891,17.3-9.178,32.829-19.768,41.3-31.77,3.883-5.3,5.295-10.237,5.295-14.473,0-8.472-5.648-14.826-11.649-17.65-6,8.825-18,19.415-32.476,29.3.706-19.768.706-28.593,1.059-43.419.353-14.473.706-31.77,1.412-46.243.706-12.355,1.765-22.945,1.765-25.063,0-7.766-7.06-14.473-15.179-18.356-5.648-2.824-12-4.589-16.944-4.589s-8.472,1.765-8.825,5.295l-1.059,7.06c-9.531-13.414-24-20.827-39.536-20.827a51.5,51.5,0,0,0-20.121,4.236C695.41-152.5,682.7-134.14,675.995-112.96a155.441,155.441,0,0,0-6.707,44.125,122.332,122.332,0,0,0,3.177,28.593c3.883,17.65,11.3,30.711,20.474,39.536,9.178,9.178,20.474,13.767,30.005,13.767,14.826,0,24-11.649,29.3-21.886,8.472-15.532,13.414-35.653,16.944-47.3C769.187-56.127,768.834-32.476,768.834-14.473ZM742.006-134.14c3.883-3.53,7.413-4.942,10.943-4.942,7.413,0,13.414,7.413,16.591,15.885a483.589,483.589,0,0,1-15.179,56.833c-8.119,24.357-18,43.772-26.828,43.772-6.354,0-8.825-13.061-8.825-28.593a207.675,207.675,0,0,1,2.824-31.77C725.062-104.135,731.769-124.962,742.006-134.14ZM733.181,55.068c1.059-2.471,5.648-5.295,12-8.472,4.942-2.471,11.3-5.648,18.356-8.825A59.784,59.784,0,0,1,758.6,50.126a24.324,24.324,0,0,1-12.355,10.237,19.611,19.611,0,0,1-7.413,1.412c-3.883,0-6.354-1.412-6.354-3.883A4.747,4.747,0,0,1,733.181,55.068ZM901.209-160.968c-7.413,5.648-13.061,18.356-13.061,34.241a93.016,93.016,0,0,0,.706,9.884,101.743,101.743,0,0,0-6,10.943c-.353-12-1.059-22.239-2.824-28.24-3.53-12.708-10.59-19.768-18-23.651a32.066,32.066,0,0,0-13.061-3.177c-4.236,0-7.766,1.059-9.531,2.824,1.059,1.059,1.412,7.413,1.412,17.3,0,13.767-1.059,34.241-1.059,70.953,0,26.475,1.059,51.538,5.648,62.834,4.942,12,16.591,19.768,27.534,19.768a21,21,0,0,0,11.3-3.177c-2.471-15.179-2.824-29.652-2.824-44.125a49.96,49.96,0,0,1,.706-10.237c3.53-21.18,12-35.3,19.768-39.183a55.5,55.5,0,0,0,42.007,19.062c19.415,0,38.83-10.943,38.83-30.358,0-10.59-6.354-17.65-13.767-17.65-1.765,10.237-11.649,20.474-22.239,20.474a7.772,7.772,0,0,1-2.824-.353c-14.473-2.824-19.415-17.3-19.415-17.3s13.061-15.179,13.061-26.122c0-14.826-15.885-27.534-27.887-27.534A14.363,14.363,0,0,0,901.209-160.968ZM1098.889-14.12c-3.883-2.118-5.3-13.414-5.3-28.24,0-8.119.353-16.944,1.059-26.122,1.765-25.416,4.942-51.891,4.942-60.363s-7.766-16.591-16.591-21.533c-6-3.53-13.061-5.648-17.65-5.648-3.883,0-6.707,1.412-6.707,4.942l-.706,5.648a49.99,49.99,0,0,0-39.536-18.709,59.53,59.53,0,0,0-20.474,3.53c-31.064,11.3-43.772,56.48-43.772,93.9a150.1,150.1,0,0,0,2.471,26.475c7.413,36.359,33.182,53.656,50.479,53.656a22.76,22.76,0,0,0,7.06-1.059c26.122-9.178,33.535-55.421,38.124-65.658,0,3.177-.353,7.766-.353,13.061a73.3,73.3,0,0,0,4.942,27.534c6.354,16.944,24.71,26.828,40.242,26.828,21.18,0,39.536-19.415,44.478-37.065a32.812,32.812,0,0,0,1.412-9.531c0-12.355-9.178-16.238-13.061-16.238-1.059,5.295-5.3,15.532-11.3,23.651-4.942,6.707-10.237,12-15.885,12A8.046,8.046,0,0,1,1098.889-14.12Zm-88.25-8.472c-5.648,0-8.119-13.767-8.119-30.358a185.5,185.5,0,0,1,3.53-36.006c3.53-18,9.531-34.947,17.65-43.066,4.589-4.589,9.178-6.707,13.061-6.707,7.413,0,13.767,7.06,16.944,18a416.1,416.1,0,0,1-16.591,57.892C1028.642-39.889,1019.464-22.592,1010.639-22.592Zm347.7,37.065c14.473-4.236,31.77-21.18,36.712-38.83a26.507,26.507,0,0,0,1.412-8.472c0-10.943-7.413-16.944-13.061-16.944-.706,3.883-4.236,12.708-8.825,20.827-4.942,8.825-11.649,16.238-18,16.238a8.824,8.824,0,0,1-4.942-1.412c-3.53-2.118-4.236-12.355-4.236-26.122,0-10.59.353-22.945,1.059-35.3.706-10.943,1.059-22.239,1.059-31.417,0-8.472-.353-15.532-1.765-19.768-4.236-14.473-13.061-23.3-22.592-27.887A43.118,43.118,0,0,0,1306.1-159.2c-6,0-11.649,1.412-14.826,3.883-7.06,4.942-13.414,14.473-18.356,25.769-5.648,13.061-10.943,30.358-15.532,47.3.353-1.765.353-5.648.353-10.59,0-10.59-1.059-26.475-5.648-39.183-5.3-14.826-21.18-26.475-37.065-26.475a30.656,30.656,0,0,0-19.062,6.707c-15.179,12.355-26.475,68.482-28.24,77.66,1.059-11.649,2.118-23.3,2.118-34.947s-1.059-23.3-3.883-29.652a30.149,30.149,0,0,0-27.181-16.944,26.6,26.6,0,0,0-11.649,2.471c1.765,6,2.471,16.591,2.471,30,0,15.532-.706,34.947-1.765,52.6-1.059,17.3-1.765,33.888-1.765,45.184a93.022,93.022,0,0,0,.353,10.943c1.765,16.591,20.827,25.416,33.535,25.416,3.883,0,7.06-.706,9.178-2.471a17.2,17.2,0,0,1-.706-5.3c0-11.649,5.295-36.712,12.355-61.775,9.531-33.888,22.239-67.07,30.005-67.07,5.295,0,6.707,14.12,6.707,32.123,0,10.237-.706,21.886-1.059,32.829-.706,17.65-2.118,34.947-2.118,45.184a36.43,36.43,0,0,0,.353,6.707c1.412,12.355,15.885,19.062,28.24,19.062,4.942,0,9.884-1.059,13.414-3.53a9.836,9.836,0,0,1-.353-3.53c0-10.237,6-36.712,13.767-63.187,9.884-33.182,22.945-66.011,30.358-66.011,5.3,0,6.354,9.884,6.354,21.886,0,14.12-1.765,32.829-1.765,50.832,0,12.355,1.059,24.357,3.53,33.888,5.3,20.827,25.063,34.947,42.36,34.947A27.529,27.529,0,0,0,1358.344,14.473Z" transform="translate(10.237 262.279)"/>
</svg>
