<svg xmlns="http://www.w3.org/2000/svg" width="1411.294" height="350.529" viewBox="0 0 1411.294 350.529">
  <path id="Path_1" data-name="Path 1" d="M146.848-15.532c6.354-5.648,9.531-11.649,9.531-16.238,0-5.295-2.824-9.531-7.06-12.708-4.942,4.942-15.885,12.355-29.652,20.121.353-5.648.353-17.65.353-25.769V-99.9c0-33.888,0-76.6,4.236-109.43,2.471-19.062,6.354-34.947,13.061-43.419a3.051,3.051,0,0,0,1.059-2.118c0-4.589-12.355-7.766-25.063-7.766-9.178,0-19.062,1.765-25.769,6.354-10.59,6.707-28.593,21.18-46.243,38.83C22.592-198.386,4.589-174.735-3.177-156.732A67.82,67.82,0,0,0-8.825-129.9c0,14.826,5.295,29.3,12,41.654C12-72.365,23.3-60.01,32.123-54.009c9.884-6,21.533-14.826,21.533-26.828a18.435,18.435,0,0,0-1.412-7.413c-6-16.238-21.533-30.711-24.71-50.479a74.536,74.536,0,0,1-.706-9.178A46.864,46.864,0,0,1,35.3-175.441c10.943-15.532,22.945-24.357,34.594-34.241,3.177-2.824,14.473-11.649,19.062-13.061-2.824,11.3-4.589,22.945-6,39.183-2.118,23.651-2.824,52.244-3.53,69.541-.353,6-.353,11.3-.353,15.885,0,22.945,1.059,42.36,1.059,61.775,0,12.355,0,24.357-.353,34.241,0,0-28.946,14.12-40.6,20.121C16.944,29.652-7.766,47.655-7.766,65.305a17.186,17.186,0,0,0,.353,4.236C-4.942,80.484,12.708,87.9,37.771,87.9c23.3,0,50.479-9.884,62.128-27.887,10.59-16.591,15.179-37.065,17.65-57.892C128.492-3.53,141.2-10.59,146.848-15.532ZM70.6,44.478C63.893,58.951,45.184,66.364,33.535,66.364c-6.707,0-11.649-2.118-12.355-7.766,0-8.472,26.122-21.886,55.774-36.359C75.542,30.711,73.777,38.477,70.6,44.478ZM184.972-136.964c-3.177-15.532-21.886-23.3-34.947-23.3H148.26a59.833,59.833,0,0,1,.353,8.119c0,7.413-.706,16.944-1.765,27.181,0,1.412-.353,3.177-.353,4.589-1.412,16.238-2.471,34.241-2.471,50.832,0,10.943,0,21.533,2.118,31.417,4.589,21.886,22.239,48.361,45.89,48.361a33.482,33.482,0,0,0,11.3-2.118c6.354-2.118,11.3-8.825,16.238-19.062,12-23.651,21.18-62.834,27.181-82.955-2.118,11.3-4.236,33.182-4.236,49.773A109.032,109.032,0,0,0,247.453-12c6.707,19.062,22.239,26.828,37.065,26.828a44.014,44.014,0,0,0,16.944-3.53c15.179-6.707,29.652-30.005,29.652-41.3,0-10.59-7.06-14.12-10.59-14.12-.706,3.177-4.942,11.649-10.943,20.121S295.461-7.413,289.107-7.413c-10.943,0-10.943-19.768-10.943-28.593,0-10.943.706-23.3,2.118-38.477,1.059-14.12,2.471-30.358,2.471-44.125,0-13.414-9.178-25.063-18.709-32.476-6.707-5.295-13.767-8.472-18-8.472-2.471,0-3.883.706-4.236,2.824-1.059,5.648-3.53,16.238-6,27.181-8.825,37.418-24.357,96.016-35.3,104.488-1.765,1.412-3.177,2.118-4.942,2.118-4.589,0-8.825-4.942-11.3-15.179-.706-2.471-.706-6.707-.706-12,0-18,2.471-48.714,2.824-63.54C186.384-123.2,186.031-131.316,184.972-136.964ZM351.235-28.593c0-9.178,3.53-22.945,8.472-35.653A167.332,167.332,0,0,1,372.768-91.78c9.531,14.473,26.828,24,46.6,24,20.121,0,36.712-10.943,36.712-28.946,0-8.472-3.883-13.767-9.884-14.473-2.824,11.3-13.414,21.18-24.71,21.18a12.009,12.009,0,0,1-3.53-.353c-16.944-3.53-23.3-21.886-23.3-21.886s14.473-16.591,14.473-26.122c0-14.12-15.179-26.122-26.475-26.122a11.08,11.08,0,0,0-7.413,2.471c-5.3,4.236-9.178,12-11.649,22.239a58.152,58.152,0,0,0-1.412,12.708,57.724,57.724,0,0,0,.706,7.766,162.171,162.171,0,0,0-10.59,27.181V-105.9c0-14.826-.706-29.3-7.766-39.889-5.648-9.178-14.826-15.532-25.063-15.532a26.872,26.872,0,0,0-7.413,1.059,94.628,94.628,0,0,1,1.412,16.944c0,8.119-.353,18.356-.706,29.652-.353,13.767-.706,33.182-.706,47.655,0,25.769,1.412,50.126,5.648,60.716,3.53,9.531,15.532,19.062,26.828,19.062A16.09,16.09,0,0,0,352.647,12C351.588-1.765,351.235-14.12,351.235-28.593Zm116.843,0c0-9.178,3.53-22.945,8.472-35.653A167.332,167.332,0,0,1,489.611-91.78c9.531,14.473,26.828,24,46.6,24,20.121,0,36.712-10.943,36.712-28.946,0-8.472-3.883-13.767-9.884-14.473-2.824,11.3-13.414,21.18-24.71,21.18a12.009,12.009,0,0,1-3.53-.353c-16.944-3.53-23.3-21.886-23.3-21.886s14.473-16.591,14.473-26.122c0-14.12-15.179-26.122-26.475-26.122a11.08,11.08,0,0,0-7.413,2.471c-5.295,4.236-9.178,12-11.649,22.239a58.152,58.152,0,0,0-1.412,12.708,57.724,57.724,0,0,0,.706,7.766,162.171,162.171,0,0,0-10.59,27.181V-105.9c0-14.826-.706-29.3-7.766-39.889-5.648-9.178-14.826-15.532-25.063-15.532a26.872,26.872,0,0,0-7.413,1.059,94.628,94.628,0,0,1,1.412,16.944c0,8.119-.353,18.356-.706,29.652-.353,13.767-.706,33.182-.706,47.655,0,25.769,1.412,50.126,5.648,60.716,3.53,9.531,15.532,19.062,26.828,19.062A16.09,16.09,0,0,0,469.49,12C468.431-1.765,468.078-14.12,468.078-28.593ZM639.283-94.6c12.355-9.884,19.062-21.533,19.062-34.241a37.082,37.082,0,0,0-3.883-16.944c-6.354-14.12-26.828-24.71-48.008-24.71-17.65,0-36.006,7.413-48.714,26.122C545.032-126.021,539.031-100.6,539.031-75.9c0,24.357,5.648,48.008,18.356,63.893,15.885,20.121,38.83,27.181,59.657,27.181A81.692,81.692,0,0,0,672.465-6.354c10.237-9.531,17.3-21.533,19.768-35.3a17.188,17.188,0,0,0,.353-4.236c0-9.178-4.942-16.238-11.649-16.238a72.1,72.1,0,0,1-19.768,38.477c-9.884,9.884-22.239,15.885-34.241,15.885-9.178,0-18.709-3.883-26.828-12.708-12-12.355-16.238-34.241-16.238-56.833C602.924-77.307,624.1-82.6,639.283-94.6Zm-26.475-58.245c7.413,0,13.767,9.178,13.767,19.062,0,9.531-5.648,22.239-16.238,29.652A71.59,71.59,0,0,1,584.568-93.9C587.745-122.138,599.041-152.849,612.808-152.849Zm149.319,206.5c-4.236,7.06-12.355,9.884-19.062,9.884s-12.355-2.471-12.355-6.354c0-2.824,4.236-6,6.354-7.413,5.648-4.236,27.181-14.473,32.476-16.591C767.775,40.6,765.657,47.3,762.127,53.656ZM727.533-16.591c-7.06,0-12.355-11.649-12.355-36.006a211.515,211.515,0,0,1,1.412-24.357c3.53-28.946,16.238-66.364,31.77-66.364,10.59,0,21.533,12.355,23.651,27.887-5.648,20.474-11.649,42.007-19.768,60.01C742.712-34.947,734.24-16.591,727.533-16.591ZM771.305,9.884s-17.3,9.178-28.24,14.473c-16.238,7.766-34.241,16.591-41.654,28.24-2.118,3.883-3.53,7.766-3.53,11.649,0,19.415,28.593,23.3,41.3,23.3,18.709,0,39.536-6.354,50.832-19.768,11.649-13.767,17.3-34.594,19.768-54.362,18-9.531,34.241-20.474,43.066-32.476,3.53-4.942,5.3-9.884,5.3-13.414a16.747,16.747,0,0,0-8.825-14.473,92.473,92.473,0,0,1-16.591,16.944c-6,4.942-13.061,10.237-20.474,15.532,0-4.236,1.765-50.479,2.824-69.894,1.412-25.063,0-36.006,2.118-50.479a12.925,12.925,0,0,0-1.412-6.354c-5.295-9.178-20.827-15.179-31.064-15.179-3.883,0-7.06.706-7.413,2.471a74.053,74.053,0,0,1-2.118,11.649c-8.825-16.238-26.122-23.651-38.124-23.651-21.533,0-39.183,12.708-50.832,31.064-10.943,18-16.944,40.948-16.944,64.246a136.424,136.424,0,0,0,5.648,38.124C680.231-15.532,688-3.53,696.822,4.236c7.413,6.354,15.179,9.531,22.945,9.531,10.237,0,17.65-6,23.3-13.061,13.061-16.238,23.651-45.89,32.476-72.718,0,6.707-3.53,28.946-3.53,45.89C772.011-7.766,771.305,3.177,771.305,9.884ZM880.029-28.593c0-9.178,3.53-22.945,8.472-35.653A167.34,167.34,0,0,1,901.562-91.78c9.531,14.473,26.828,24,46.6,24,20.121,0,36.712-10.943,36.712-28.946,0-8.472-3.883-13.767-9.884-14.473-2.824,11.3-13.414,21.18-24.71,21.18a12.009,12.009,0,0,1-3.53-.353c-16.944-3.53-23.3-21.886-23.3-21.886s14.473-16.591,14.473-26.122c0-14.12-15.179-26.122-26.475-26.122a11.08,11.08,0,0,0-7.413,2.471c-5.295,4.236-9.178,12-11.649,22.239a58.15,58.15,0,0,0-1.412,12.708,57.729,57.729,0,0,0,.706,7.766,162.174,162.174,0,0,0-10.59,27.181V-105.9c0-14.826-.706-29.3-7.766-39.889-5.648-9.178-14.826-15.532-25.063-15.532a26.872,26.872,0,0,0-7.413,1.059,94.628,94.628,0,0,1,1.412,16.944c0,8.119-.353,18.356-.706,29.652-.353,13.767-.706,33.182-.706,47.655,0,25.769,1.412,50.126,5.648,60.716,3.53,9.531,15.532,19.062,26.828,19.062A16.09,16.09,0,0,0,881.441,12C880.382-1.765,880.029-14.12,880.029-28.593ZM1102.066-8.472c-5.3-2.471-7.06-15.179-7.06-31.77,0-20.474,2.471-47.655,4.589-67.776,1.059-10.59,1.765-19.415,1.765-22.945-.353-15.532-20.121-28.24-31.064-28.24-3.883,0-6.354,1.765-6.707,5.3a106.912,106.912,0,0,1-1.412,12.708,54.822,54.822,0,0,0-44.831-23.651,48.922,48.922,0,0,0-18.709,3.53c-29.3,11.649-43.772,55.068-43.772,91.074v3.883c.706,22.592,7.06,44.125,16.591,58.951C979.928,6,991.577,14.12,1003.579,14.12a29.083,29.083,0,0,0,9.178-1.412c22.239-7.766,39.183-57.539,44.125-74.483,0,1.412-.353,2.824-.353,4.236-.353,5.648-.706,10.237-.706,14.826,0,8.825,1.059,17.65,4.236,31.77,1.412,6,6,11.649,11.649,15.885,7.413,5.648,19.415,10.237,27.887,10.237,21.886,0,39.536-19.062,45.537-36.712a31.484,31.484,0,0,0,1.059-7.766c0-9.178-4.942-13.767-8.825-14.826-3.177,12-17.65,37.065-30.358,37.065C1105.243-7.06,1103.831-7.766,1102.066-8.472Zm-91.78-8.472c-5.295,0-10.237-16.944-10.237-34.947,0-28.946,8.472-69.541,22.945-84.72,4.236-4.236,8.472-6,12.355-6,11.649,0,20.827,15.885,21.886,27.181-6.354,28.593-17.65,61.069-28.946,80.484C1021.935-24,1015.581-16.944,1010.286-16.944ZM1364.7,15.179c13.414-3.883,31.77-20.827,36.712-38.124a31.484,31.484,0,0,0,1.059-7.766c0-8.825-4.942-13.767-8.825-14.473-1.765,6.354-8.119,19.062-15.532,28.24-4.942,6-10.237,10.237-15.532,10.237a8.3,8.3,0,0,1-5.648-1.765c-4.942-3.177-6-15.179-6-28.24,0-13.767,1.412-28.946,1.765-36.006.706-11.649,1.765-22.945,1.765-33.535a83.829,83.829,0,0,0-2.471-21.533c-7.06-23.3-26.475-31.417-41.3-31.417-15.885,0-26.828,15.179-32.829,31.417-6.707,17.65-14.12,34.594-20.121,58.6.353-10.59.706-18,.706-25.769,0-13.061-1.059-26.475-6-38.477-5.648-13.767-20.827-25.416-36.359-25.416-20.827,0-27.887,19.415-33.888,34.947-9.531,24.357-16.944,54.715-18,59.657,2.471-40.948,2.471-44.478,2.471-47.655,0-13.414-1.765-23.3-3.883-27.887-4.942-10.59-17.3-15.885-27.534-15.885a22.761,22.761,0,0,0-7.06,1.059,130.57,130.57,0,0,1,1.765,22.945c0,14.826-1.765,29.3-2.824,48.714-1.059,15.179-1.765,34.947-1.765,50.832,0,8.119.353,15.179.706,20.121,1.059,13.414,20.827,23.3,33.182,23.3a15.213,15.213,0,0,0,6-1.059c0-14.12,7.413-46.6,16.591-76.954,10.237-33.535,22.592-64.246,30.005-64.246s8.825,18.356,8.825,39.889c0,7.766,0,16.238-.353,24-.706,20.474-3.177,37.418-3.177,49.773A50,50,0,0,0,1218.2-6.354c3.177,12,15.179,16.944,26.475,16.944a40.307,40.307,0,0,0,11.649-1.765V6.707c0-12.355,8.119-45.184,18-75.895,6.707-21.18,14.473-40.948,21.18-52.6,3.53-6.354,7.06-9.884,9.531-9.884,3.883,0,6,4.236,7.413,9.531,1.765,6.707,1.765,14.473,1.765,17.3,0,19.062-2.118,36.359-2.118,53.656a132.145,132.145,0,0,0,3.883,33.535c5.3,20.121,24,33.888,40.948,33.888A27.529,27.529,0,0,0,1364.7,15.179Z" transform="translate(8.825 262.632)"/>
</svg>
